<mxfile host="app.diagrams.net" modified="2023-02-03T05:42:22.997Z" agent="5.0 (X11; Linux x86_64) AppleWebKit/537.36 (KHTML, like Gecko) Chrome/108.0.0.0 Safari/537.36" etag="VG8w78wol6mVuFWcczPR" version="20.8.16" type="github">
  <diagram id="C5RBs43oDa-KdzZeNtuy" name="Page-1">
    <mxGraphModel dx="1040" dy="627" grid="1" gridSize="10" guides="1" tooltips="1" connect="1" arrows="1" fold="1" page="1" pageScale="1" pageWidth="827" pageHeight="1169" math="0" shadow="0">
      <root>
        <mxCell id="WIyWlLk6GJQsqaUBKTNV-0" />
        <mxCell id="WIyWlLk6GJQsqaUBKTNV-1" parent="WIyWlLk6GJQsqaUBKTNV-0" />
        <mxCell id="XQYkYuENIy1JusGPpLJj-2" style="edgeStyle=orthogonalEdgeStyle;rounded=0;orthogonalLoop=1;jettySize=auto;html=1;exitX=0.5;exitY=1;exitDx=0;exitDy=0;" edge="1" parent="WIyWlLk6GJQsqaUBKTNV-1" source="XQYkYuENIy1JusGPpLJj-0" target="XQYkYuENIy1JusGPpLJj-1">
          <mxGeometry relative="1" as="geometry" />
        </mxCell>
        <mxCell id="XQYkYuENIy1JusGPpLJj-0" value="Start" style="ellipse;whiteSpace=wrap;html=1;" vertex="1" parent="WIyWlLk6GJQsqaUBKTNV-1">
          <mxGeometry x="320" y="40" width="120" height="40" as="geometry" />
        </mxCell>
        <mxCell id="XQYkYuENIy1JusGPpLJj-4" style="edgeStyle=orthogonalEdgeStyle;rounded=0;orthogonalLoop=1;jettySize=auto;html=1;exitX=0.5;exitY=1;exitDx=0;exitDy=0;" edge="1" parent="WIyWlLk6GJQsqaUBKTNV-1" source="XQYkYuENIy1JusGPpLJj-1" target="XQYkYuENIy1JusGPpLJj-3">
          <mxGeometry relative="1" as="geometry" />
        </mxCell>
        <mxCell id="XQYkYuENIy1JusGPpLJj-1" value="Input n" style="shape=parallelogram;perimeter=parallelogramPerimeter;whiteSpace=wrap;html=1;fixedSize=1;" vertex="1" parent="WIyWlLk6GJQsqaUBKTNV-1">
          <mxGeometry x="330" y="130" width="100" height="50" as="geometry" />
        </mxCell>
        <mxCell id="XQYkYuENIy1JusGPpLJj-6" value="" style="edgeStyle=orthogonalEdgeStyle;rounded=0;orthogonalLoop=1;jettySize=auto;html=1;" edge="1" parent="WIyWlLk6GJQsqaUBKTNV-1" source="XQYkYuENIy1JusGPpLJj-3" target="XQYkYuENIy1JusGPpLJj-5">
          <mxGeometry relative="1" as="geometry" />
        </mxCell>
        <mxCell id="XQYkYuENIy1JusGPpLJj-3" value="Initilize i=0,sum=0" style="rounded=0;whiteSpace=wrap;html=1;" vertex="1" parent="WIyWlLk6GJQsqaUBKTNV-1">
          <mxGeometry x="325" y="230" width="110" height="40" as="geometry" />
        </mxCell>
        <mxCell id="XQYkYuENIy1JusGPpLJj-9" value="" style="edgeStyle=orthogonalEdgeStyle;rounded=0;orthogonalLoop=1;jettySize=auto;html=1;" edge="1" parent="WIyWlLk6GJQsqaUBKTNV-1" source="XQYkYuENIy1JusGPpLJj-5" target="XQYkYuENIy1JusGPpLJj-7">
          <mxGeometry relative="1" as="geometry" />
        </mxCell>
        <mxCell id="XQYkYuENIy1JusGPpLJj-19" style="edgeStyle=orthogonalEdgeStyle;rounded=0;orthogonalLoop=1;jettySize=auto;html=1;exitX=0;exitY=0.5;exitDx=0;exitDy=0;entryX=0;entryY=0.5;entryDx=0;entryDy=0;" edge="1" parent="WIyWlLk6GJQsqaUBKTNV-1" source="XQYkYuENIy1JusGPpLJj-5" target="XQYkYuENIy1JusGPpLJj-17">
          <mxGeometry relative="1" as="geometry">
            <mxPoint x="290" y="700" as="targetPoint" />
            <Array as="points">
              <mxPoint x="240" y="350" />
              <mxPoint x="240" y="700" />
              <mxPoint x="325" y="700" />
            </Array>
          </mxGeometry>
        </mxCell>
        <mxCell id="XQYkYuENIy1JusGPpLJj-5" value="i&amp;lt;n" style="rhombus;whiteSpace=wrap;html=1;" vertex="1" parent="WIyWlLk6GJQsqaUBKTNV-1">
          <mxGeometry x="340" y="310" width="80" height="80" as="geometry" />
        </mxCell>
        <mxCell id="XQYkYuENIy1JusGPpLJj-11" value="" style="edgeStyle=orthogonalEdgeStyle;rounded=0;orthogonalLoop=1;jettySize=auto;html=1;" edge="1" parent="WIyWlLk6GJQsqaUBKTNV-1" source="XQYkYuENIy1JusGPpLJj-7" target="XQYkYuENIy1JusGPpLJj-10">
          <mxGeometry relative="1" as="geometry" />
        </mxCell>
        <mxCell id="XQYkYuENIy1JusGPpLJj-20" style="edgeStyle=orthogonalEdgeStyle;rounded=0;orthogonalLoop=1;jettySize=auto;html=1;exitX=0;exitY=0.5;exitDx=0;exitDy=0;entryX=0;entryY=0.75;entryDx=0;entryDy=0;" edge="1" parent="WIyWlLk6GJQsqaUBKTNV-1" source="XQYkYuENIy1JusGPpLJj-7" target="XQYkYuENIy1JusGPpLJj-12">
          <mxGeometry relative="1" as="geometry">
            <Array as="points">
              <mxPoint x="280" y="460" />
              <mxPoint x="280" y="633" />
            </Array>
          </mxGeometry>
        </mxCell>
        <mxCell id="XQYkYuENIy1JusGPpLJj-7" value="if i%2==0" style="rhombus;whiteSpace=wrap;html=1;" vertex="1" parent="WIyWlLk6GJQsqaUBKTNV-1">
          <mxGeometry x="340" y="420" width="80" height="80" as="geometry" />
        </mxCell>
        <mxCell id="XQYkYuENIy1JusGPpLJj-16" value="" style="edgeStyle=orthogonalEdgeStyle;rounded=0;orthogonalLoop=1;jettySize=auto;html=1;" edge="1" parent="WIyWlLk6GJQsqaUBKTNV-1" source="XQYkYuENIy1JusGPpLJj-10" target="XQYkYuENIy1JusGPpLJj-12">
          <mxGeometry relative="1" as="geometry" />
        </mxCell>
        <mxCell id="XQYkYuENIy1JusGPpLJj-10" value="sum=sum+i" style="rounded=0;whiteSpace=wrap;html=1;" vertex="1" parent="WIyWlLk6GJQsqaUBKTNV-1">
          <mxGeometry x="325" y="540" width="110" height="40" as="geometry" />
        </mxCell>
        <mxCell id="XQYkYuENIy1JusGPpLJj-15" style="edgeStyle=orthogonalEdgeStyle;rounded=0;orthogonalLoop=1;jettySize=auto;html=1;entryX=1;entryY=0.5;entryDx=0;entryDy=0;" edge="1" parent="WIyWlLk6GJQsqaUBKTNV-1" source="XQYkYuENIy1JusGPpLJj-12" target="XQYkYuENIy1JusGPpLJj-3">
          <mxGeometry relative="1" as="geometry">
            <Array as="points">
              <mxPoint x="560" y="625" />
              <mxPoint x="560" y="250" />
            </Array>
          </mxGeometry>
        </mxCell>
        <mxCell id="XQYkYuENIy1JusGPpLJj-18" value="" style="edgeStyle=orthogonalEdgeStyle;rounded=0;orthogonalLoop=1;jettySize=auto;html=1;" edge="1" parent="WIyWlLk6GJQsqaUBKTNV-1" source="XQYkYuENIy1JusGPpLJj-12" target="XQYkYuENIy1JusGPpLJj-17">
          <mxGeometry relative="1" as="geometry" />
        </mxCell>
        <mxCell id="XQYkYuENIy1JusGPpLJj-12" value="i = i+1" style="rounded=0;whiteSpace=wrap;html=1;" vertex="1" parent="WIyWlLk6GJQsqaUBKTNV-1">
          <mxGeometry x="315" y="610" width="130" height="30" as="geometry" />
        </mxCell>
        <mxCell id="XQYkYuENIy1JusGPpLJj-13" value="Yes" style="text;strokeColor=none;align=center;fillColor=none;html=1;verticalAlign=middle;whiteSpace=wrap;rounded=0;" vertex="1" parent="WIyWlLk6GJQsqaUBKTNV-1">
          <mxGeometry x="375" y="280" width="60" height="30" as="geometry" />
        </mxCell>
        <mxCell id="XQYkYuENIy1JusGPpLJj-14" value="Yes" style="text;strokeColor=none;align=center;fillColor=none;html=1;verticalAlign=middle;whiteSpace=wrap;rounded=0;" vertex="1" parent="WIyWlLk6GJQsqaUBKTNV-1">
          <mxGeometry x="390" y="390" width="60" height="30" as="geometry" />
        </mxCell>
        <mxCell id="XQYkYuENIy1JusGPpLJj-25" value="" style="edgeStyle=orthogonalEdgeStyle;rounded=0;orthogonalLoop=1;jettySize=auto;html=1;" edge="1" parent="WIyWlLk6GJQsqaUBKTNV-1" source="XQYkYuENIy1JusGPpLJj-17" target="XQYkYuENIy1JusGPpLJj-24">
          <mxGeometry relative="1" as="geometry" />
        </mxCell>
        <mxCell id="XQYkYuENIy1JusGPpLJj-17" value="Print sum" style="shape=parallelogram;perimeter=parallelogramPerimeter;whiteSpace=wrap;html=1;fixedSize=1;" vertex="1" parent="WIyWlLk6GJQsqaUBKTNV-1">
          <mxGeometry x="315" y="690" width="130" height="30" as="geometry" />
        </mxCell>
        <mxCell id="XQYkYuENIy1JusGPpLJj-21" value="Yes" style="text;strokeColor=none;align=center;fillColor=none;html=1;verticalAlign=middle;whiteSpace=wrap;rounded=0;" vertex="1" parent="WIyWlLk6GJQsqaUBKTNV-1">
          <mxGeometry x="370" y="510" width="60" height="30" as="geometry" />
        </mxCell>
        <mxCell id="XQYkYuENIy1JusGPpLJj-22" value="No" style="text;strokeColor=none;align=center;fillColor=none;html=1;verticalAlign=middle;whiteSpace=wrap;rounded=0;" vertex="1" parent="WIyWlLk6GJQsqaUBKTNV-1">
          <mxGeometry x="255" y="310" width="60" height="30" as="geometry" />
        </mxCell>
        <mxCell id="XQYkYuENIy1JusGPpLJj-23" value="No" style="text;strokeColor=none;align=center;fillColor=none;html=1;verticalAlign=middle;whiteSpace=wrap;rounded=0;" vertex="1" parent="WIyWlLk6GJQsqaUBKTNV-1">
          <mxGeometry x="280" y="430" width="60" height="30" as="geometry" />
        </mxCell>
        <mxCell id="XQYkYuENIy1JusGPpLJj-24" value="End" style="ellipse;whiteSpace=wrap;html=1;" vertex="1" parent="WIyWlLk6GJQsqaUBKTNV-1">
          <mxGeometry x="335" y="760" width="90" height="40" as="geometry" />
        </mxCell>
      </root>
    </mxGraphModel>
  </diagram>
</mxfile>
